<svg id="Calque_1" data-name="Calque 1" xmlns="http://www.w3.org/2000/svg" viewBox="0 0 64.62 30.12"><defs><style>.cls-1{fill:#1334cb;}</style></defs><path class="cls-1" d="M24.53.37,16.08,20.55H10.56L6.39,4.44A2.22,2.22,0,0,0,5.15,2.67,21.72,21.72,0,0,0,0,1L.12.37H9a2.44,2.44,0,0,1,2.41,2.06l2.2,11.68L19,.37ZM46.16,14c0-5.33-7.36-5.62-7.32-8,0-.72.71-1.49,2.21-1.69a10,10,0,0,1,5.16.91L47.12.89A13.9,13.9,0,0,0,42.24,0c-5.16,0-8.79,2.74-8.82,6.67,0,2.9,2.59,4.53,4.56,5.49s2.73,1.63,2.72,2.51c0,1.35-1.63,2-3.12,2a11,11,0,0,1-5.36-1.27l-.95,4.42a15.78,15.78,0,0,0,5.81,1.07c5.48,0,9.06-2.7,9.08-6.9m13.63,6.59h4.83L60.4.37H56a2.37,2.37,0,0,0-2.22,1.48L45.89,20.56h5.49l1.08-3h6.7ZM54,13.4l2.75-7.58,1.57,7.58ZM32,.37,27.67,20.55H22.46L26.77.37Z"/><path class="cls-1" d="M35.16,30V24.57h3.41v.59H35.85v1.75H38v.57H35.85v2h2.71V30h-3.4Z"/><path class="cls-1" d="M40.3,24.36V30h-.64V24.36Z"/><path class="cls-1" d="M43.34,29.61a2.75,2.75,0,0,0,.89-.13,2,2,0,0,0,.61-.36h0l0,.58a1.81,1.81,0,0,1-.56.29,2.91,2.91,0,0,1-1,.13,2,2,0,0,1-1.07-.27,1.88,1.88,0,0,1-.72-.76,2.32,2.32,0,0,1-.26-1.1,2.28,2.28,0,0,1,.26-1.09,1.9,1.9,0,0,1,.7-.76,1.84,1.84,0,0,1,1-.27,2.09,2.09,0,0,1,1,.22,1.46,1.46,0,0,1,.59.64,2.28,2.28,0,0,1,.18.94,1,1,0,0,1,0,.17A.9.9,0,0,1,45,28H41.91v0a1.67,1.67,0,0,0,.41,1.14A1.27,1.27,0,0,0,43.34,29.61Zm-.16-3.25a1.18,1.18,0,0,0-.87.33,1.54,1.54,0,0,0-.4.92h2.44v-.08a1.68,1.68,0,0,0-.1-.62.85.85,0,0,0-.36-.41A1.54,1.54,0,0,0,43.18,26.36Z"/><path class="cls-1" d="M45.65,28a2.28,2.28,0,0,1,.25-1.09,1.93,1.93,0,0,1,.71-.76,2.06,2.06,0,0,1,1.08-.27,2.31,2.31,0,0,1,.86.12,1.65,1.65,0,0,1,.47.25l.07.68h0a1.89,1.89,0,0,0-.59-.39,1.74,1.74,0,0,0-.75-.13,1.5,1.5,0,0,0-.74.18,1.33,1.33,0,0,0-.5.55,1.91,1.91,0,0,0-.18.86,1.62,1.62,0,0,0,.41,1.18,1.42,1.42,0,0,0,1,.41,2.49,2.49,0,0,0,.59-.06,1.13,1.13,0,0,0,.42-.17,3.9,3.9,0,0,0,.36-.25h0l-.06.57a1.74,1.74,0,0,1-.52.3,2.44,2.44,0,0,1-.87.14,2.06,2.06,0,0,1-1.08-.27,1.93,1.93,0,0,1-.71-.76A2.25,2.25,0,0,1,45.65,28Z"/><path class="cls-1" d="M50.93,28.93a.7.7,0,0,0,.16.52.76.76,0,0,0,.44.13,1.73,1.73,0,0,0,.42,0,.89.89,0,0,0,.29-.1h0l0,.54a1.35,1.35,0,0,1-.32.1,2.28,2.28,0,0,1-.44.05,1.25,1.25,0,0,1-.85-.26,1,1,0,0,1-.31-.83V26.5h-.75l.09-.42.66-.1v-.87l.64-.09V26h1.24l-.08.53H50.93Z"/><path class="cls-1" d="M54.64,26.53a.92.92,0,0,0-.74.3,1.31,1.31,0,0,0-.27.9V30H53V26h.62v.85h0a1.23,1.23,0,0,1,.47-.74,1.27,1.27,0,0,1,.71-.2H55l.15,0-.08.7h0a1.08,1.08,0,0,0-.17,0A.82.82,0,0,0,54.64,26.53Z"/><path class="cls-1" d="M57.58,25.87a2,2,0,0,1,1,.27,2,2,0,0,1,.72.76,2.44,2.44,0,0,1,0,2.19,1.82,1.82,0,0,1-.72.76,2.16,2.16,0,0,1-2.09,0,1.88,1.88,0,0,1-.72-.76,2.32,2.32,0,0,1-.26-1.1,2.28,2.28,0,0,1,.26-1.09,1.88,1.88,0,0,1,.72-.76A2.05,2.05,0,0,1,57.58,25.87Zm0,3.72a1.22,1.22,0,0,0,1-.42A1.89,1.89,0,0,0,58.93,28a1.85,1.85,0,0,0-.34-1.17,1.24,1.24,0,0,0-1-.42,1.26,1.26,0,0,0-1,.42A1.87,1.87,0,0,0,56.21,28a1.89,1.89,0,0,0,.34,1.17A1.26,1.26,0,0,0,57.58,29.59Z"/><path class="cls-1" d="M62.63,25.87a1.42,1.42,0,0,1,1,.34A1.34,1.34,0,0,1,64,27.27V30h-.63V27.45a1.2,1.2,0,0,0-.22-.77,1,1,0,0,0-.79-.26,1.41,1.41,0,0,0-.62.14.94.94,0,0,0-.43.38,1.08,1.08,0,0,0-.16.6V30h-.65V26h.62v.86h0a1.34,1.34,0,0,1,.35-.56,1.75,1.75,0,0,1,.52-.31A1.88,1.88,0,0,1,62.63,25.87Z"/></svg>