<svg id="Calque_1" data-name="Calque 1" xmlns="http://www.w3.org/2000/svg" viewBox="0 0 65.55 50.94"><defs><style>.cls-1{fill:#00a2e5;}.cls-2{fill:#7375cf;}.cls-3{fill:#eb001b;}</style></defs><path class="cls-1" d="M64.93,32.81V32h-.2l-.22.53L64.28,32h-.2v.79h.13v-.59l.23.52h.16l.23-.52v.59Zm-1.31,0v-.66h.26V32h-.65v.13h.26v.66Z"/><path class="cls-2" d="M41.63,36.19H23.89V4.33H41.63Z"/><path class="cls-3" d="M25,20.26A20.2,20.2,0,0,1,32.78,4.33,20.26,20.26,0,1,0,20.26,40.51a20.12,20.12,0,0,0,12.52-4.32A20.23,20.23,0,0,1,25,20.26"/><path class="cls-1" d="M65.55,20.26A20.26,20.26,0,0,1,32.78,36.19a20.28,20.28,0,0,0,0-31.86A20.25,20.25,0,0,1,65.55,20.26"/><path d="M47.59,45.2a2.34,2.34,0,0,1,.82.13l-.36,1.12a2,2,0,0,0-.72-.14c-.75,0-1.15.5-1.15,1.38v3H45V45.33h1.15V46a1.63,1.63,0,0,1,1.44-.79m-4.32,1.18H41.36v2.43c0,.52.2.88.79.88a2.38,2.38,0,0,0,1.05-.29l.33,1a2.72,2.72,0,0,1-1.48.43c-1.37,0-1.87-.76-1.87-2V46.38H39.1V45.3h1.08V43.66h1.18V45.3h1.91v1.08Zm-15,1.15a1.38,1.38,0,0,1,1.44-1.31,1.35,1.35,0,0,1,1.38,1.31Zm4,.49a2.58,2.58,0,0,0-2.56-2.82,2.82,2.82,0,0,0,.07,5.64A3.17,3.17,0,0,0,32,50.08l-.59-.85a2.55,2.55,0,0,1-1.57.56,1.51,1.51,0,0,1-1.61-1.31h4a1.9,1.9,0,0,0,.07-.46m5.14-1.31a3.43,3.43,0,0,0-1.67-.46c-.65,0-1,.23-1,.62s.39.46.91.53l.56.06c1.18.17,1.87.66,1.87,1.61s-.89,1.77-2.46,1.77a3.94,3.94,0,0,1-2.33-.69l.56-.92a2.89,2.89,0,0,0,1.8.56c.79,0,1.22-.23,1.22-.66s-.3-.46-.95-.55l-.56-.07c-1.21-.16-1.87-.72-1.87-1.57,0-1.08.89-1.74,2.23-1.74a4.15,4.15,0,0,1,2.2.56Zm14.43-.43a1.47,1.47,0,0,0-.66.13,1.51,1.51,0,0,0-.52.36,2.25,2.25,0,0,0-.36.56,1.61,1.61,0,0,0-.14.69,1.52,1.52,0,0,0,.14.69,1.74,1.74,0,0,0,.36.55,1.52,1.52,0,0,0,.52.36,1.48,1.48,0,0,0,.66.14,1.41,1.41,0,0,0,.65-.14,1.32,1.32,0,0,0,.53-.36,1.64,1.64,0,0,0,.36-.55,1.6,1.6,0,0,0,.13-.69,1.52,1.52,0,0,0-.13-.69,2.23,2.23,0,0,0-.36-.56,2.07,2.07,0,0,0-.53-.36,2.21,2.21,0,0,0-.65-.13m0-1.08a2.58,2.58,0,0,1,1.14.23A2.47,2.47,0,0,1,54,46a3.34,3.34,0,0,1,.62.88A3.07,3.07,0,0,1,54.8,48a2.4,2.4,0,0,1-.23,1.11A2.2,2.2,0,0,1,54,50a2.47,2.47,0,0,1-.92.59,3.41,3.41,0,0,1-1.14.23,2.63,2.63,0,0,1-1.15-.23,2.47,2.47,0,0,1-.92-.59A2.76,2.76,0,0,1,49,48a2.47,2.47,0,0,1,.23-1.12,2.17,2.17,0,0,1,.62-.88,2.47,2.47,0,0,1,.92-.59,2.63,2.63,0,0,1,1.15-.23M21.47,48a1.63,1.63,0,0,1,1.64-1.74A1.6,1.6,0,0,1,24.71,48a1.62,1.62,0,1,1-3.24,0m4.36,0V45.33H24.65V46a2,2,0,0,0-1.71-.79,2.82,2.82,0,0,0,0,5.64,2.08,2.08,0,0,0,1.71-.79v.66h1.18Zm-6.59,2.69V47.33a2,2,0,0,0-2.13-2.13,2.12,2.12,0,0,0-1.9.95,2,2,0,0,0-1.77-.95,1.76,1.76,0,0,0-1.57.79v-.66H10.69v5.38h1.18v-3a1.28,1.28,0,0,1,1.31-1.44c.78,0,1.18.49,1.18,1.41v3h1.18v-3a1.29,1.29,0,0,1,1.31-1.44c.78,0,1.18.49,1.18,1.41v3h1.21Z"/><path d="M56.05,50.28v.13h.13s.07,0,.07,0,0,0,0-.07,0,0,0,0a.15.15,0,0,0-.07,0h-.13Zm.13-.07c.07,0,.1,0,.13,0a.17.17,0,0,1,.07.13.12.12,0,0,1,0,.1s-.06,0-.13,0l.17.2h-.13l-.17-.2h0v.2H56v-.5Zm0,.66a.3.3,0,0,0,.16,0,.53.53,0,0,0,.13-.1.35.35,0,0,0,.13-.3.32.32,0,0,0,0-.16.28.28,0,0,0-.1-.13.36.36,0,0,0-.13-.1s-.1,0-.16,0a.34.34,0,0,0-.17,0,.73.73,0,0,0-.13.1s-.06.1-.1.13a.32.32,0,0,0,0,.16.34.34,0,0,0,0,.17l.1.13a.64.64,0,0,1,.13.1.34.34,0,0,0,.17,0m0-.95a.42.42,0,0,1,.19,0,1.09,1.09,0,0,1,.17.1.75.75,0,0,1,.13.16.49.49,0,0,1,0,.2.46.46,0,0,1,0,.2.34.34,0,0,1-.13.16c-.07,0-.1.1-.17.13a.33.33,0,0,1-.19,0,.45.45,0,0,1-.23,0,.31.31,0,0,1-.17-.13,1.26,1.26,0,0,1-.13-.16.46.46,0,0,1,0-.2.49.49,0,0,1,0-.2c0-.06.07-.13.13-.16s.1-.1.17-.1a.58.58,0,0,1,.23,0"/></svg>