<svg id="Calque_1" data-name="Calque 1" xmlns="http://www.w3.org/2000/svg" viewBox="0 0 126.15 97.88"><defs><style>.cls-1{fill:#fe0015;}.cls-2{fill:#fe9e00;}.cls-3{fill:#020202;}.cls-4{fill:#fe5f00;}.cls-5{fill:#fdfdfd;}</style></defs><path d="M113.8,54.32a3.09,3.09,0,0,1-2.23,1.21h-1.42c-.41-.2-.81-.2-1.22-.4a4.87,4.87,0,0,1-2.64-5.89A4.79,4.79,0,0,1,112,45.59a3,3,0,0,1,1.83,1.22V42.35c0-.41.2-.41.41-.41h1.21c.41,0,.41,0,.41.41V55.13c0,.2,0,.2-.2.2h-1.42c-.21,0-.41,0-.41-.41q.3,0,0-.6c.2.2.2,0,0,0Zm-5.48-3.66a2.88,2.88,0,0,0,3,3.05,3,3,0,0,0,2.85-3.05,2.83,2.83,0,0,0-2.85-3A2.78,2.78,0,0,0,108.32,50.66Z"/><path d="M32,55.74c-.4-.21-.81-.21-1.22-.41A4.93,4.93,0,0,1,28,50.46a4.71,4.71,0,0,1,2.84-4.26,4.17,4.17,0,0,1,4.87,1V46.4c0-.2,0-.4.41-.4h1.42c.2,0,.41,0,.41.4v8.93c0,.2,0,.41-.41.41H36.09c-.41,0-.41,0-.41-.41v-.81a3.61,3.61,0,0,1-1.42,1c-.4.21-.81.21-1,.41C33.05,55.74,32.44,55.74,32,55.74Zm-1.82-5.08a2.87,2.87,0,0,0,3,3.05,3,3,0,0,0,2.84-3.25,2.83,2.83,0,0,0-2.84-3A3,3,0,0,0,30.21,50.66Z"/><path d="M63.07,55.74c-.2-.21-.6-.21-1-.41a5.19,5.19,0,0,1,.2-9.54,4.32,4.32,0,0,1,5.89,4.06v1.22c0,.41,0,.41-.41.41H61.45c-.4,0-.4.2-.4.4a3,3,0,0,0,3.24,1.83,6.39,6.39,0,0,0,2-.81c.2-.21.41-.21.41,0,.2.2.4.6.61.81.4.4.2.61-.21.81a10.21,10.21,0,0,1-2.64,1h-.2C64.09,55.74,63.68,55.74,63.07,55.74Zm.82-8.32a2.88,2.88,0,0,0-2.64,1.82c0,.21,0,.41.2.41h4.26c.21,0,.21,0,.21-.2A1.92,1.92,0,0,0,63.89,47.42Z"/><path d="M54.35,55.74c0-.21-.2-.21-.41-.21a2.56,2.56,0,0,1-2-2.43,34.62,34.62,0,0,1,0-4.67.54.54,0,0,0-.61-.61c-.41,0-1,.21-1.22,0s0-.81,0-1.21,0-.61.61-.61h1c.41,0,.41-.21.41-.41V43.36c0-.2,0-.41.4-.41h1.42a.44.44,0,0,1,.41.41v2.23c0,.2,0,.41.41.41h2.63c.21,0,.41,0,.41.4v1c0,.4,0,.4-.41.4H54.76c-.21,0-.41,0-.41.41v3.85c0,1.22.61,1.83,1.83,1.63a5.37,5.37,0,0,0,1.42-.41,8.59,8.59,0,0,0,.61,1.42c0,.2,0,.41-.21.41l-1.82.61Z"/><path d="M81.54,55.74c-.41-.21-.81-.21-1-.41a4.81,4.81,0,0,1-3.24-5.07,4.73,4.73,0,0,1,5.27-4.67,4.63,4.63,0,0,1,2.84.81c.21.21.21.21.21.41a4.85,4.85,0,0,1-.61,1c-.21.21-.21.21-.41.21a3.48,3.48,0,0,0-2.84-.61,3,3,0,0,0-2.23,3.65A2.85,2.85,0,0,0,83,53.5a2.3,2.3,0,0,0,1.62-.6c.2-.21.41-.21.61.2s.41.61.61,1c.2.21.2.41-.2.61a8.19,8.19,0,0,1-2,.81h-.21A6,6,0,0,1,81.54,55.74Z"/><path d="M43,55.74c.2,0,.2-.21,0,0h0Z"/><path d="M13,47a3.81,3.81,0,0,1,6.09.41,4.06,4.06,0,0,1,2.43-1.63c1.62-.2,3,0,4.06,1.22a3.23,3.23,0,0,1,.81,2.44v5.88c0,.2,0,.41-.41.41H24.32c-.4,0-.4,0-.4-.41V50.66a2.47,2.47,0,0,0-.21-1.21,1.84,1.84,0,0,0-2-1.63,2.2,2.2,0,0,0-2.23,1.63,8.92,8.92,0,0,1-.2,1v4.87c0,.2,0,.41-.41.41H17.42c-.4,0-.4,0-.4-.41V50.66a2.47,2.47,0,0,0-.21-1.21,1.81,1.81,0,0,0-2-1.42,2,2,0,0,0-2,1.62c0,.2-.21.61-.21.81v4.87c0,.41,0,.41-.4.41H10.73c-.21,0-.41,0-.41-.41V46.4c0-.2,0-.4.41-.4h1.42c.2,0,.4,0,.4.4C12.76,46.4,13,46.61,13,47Z"/><path d="M92.29,55.53H91.07a4.84,4.84,0,0,1-4.26-4.87,5,5,0,0,1,3.86-5.07,4,4,0,0,1,4.06,1.22v-.2c0-1,0-1,1-1s1,0,1,1v8.11c0,.41,0,.41-.41.41H95.13c-.2,0-.4,0-.4-.41v-.81A2.93,2.93,0,0,1,92.29,55.53Zm2.44-4.87a2.9,2.9,0,0,0-4.26-2.84,3.14,3.14,0,0,0-1.63,3,2.79,2.79,0,0,0,3.65,2.63A2.67,2.67,0,0,0,94.73,50.66Z"/><path d="M44.81,55.53H43.19a5.45,5.45,0,0,1-3-1c-.21-.2-.21-.2-.21-.41a4.85,4.85,0,0,1,.61-1c.21-.2.21-.2.41,0a5.2,5.2,0,0,0,3.85.81,1.52,1.52,0,0,0,1-.41c.4-.4.4-1-.2-1.21a3.32,3.32,0,0,0-2-.41,6,6,0,0,1-1.83-.4,2.21,2.21,0,0,1-1.62-2.24,2.73,2.73,0,0,1,1.42-2.63A4.06,4.06,0,0,1,43.8,46a7,7,0,0,1,4.06.81c.2.2.4.2.2.4-.2.41-.41,1-.81,1.22s-.81-.2-1.42-.4A5.46,5.46,0,0,0,44,47.82c-.4,0-.81,0-1,.21-.41.2-.61.4-.61.81s.4.61.81.81c.81.2,1.62.2,2.23.41s1.22.2,1.63.6a2.76,2.76,0,0,1,.2,4.47A10.28,10.28,0,0,1,44.81,55.53Z"/><path d="M101.63,46.81a3.62,3.62,0,0,1,3.65-1.22c.2,0,.2,0,.2.2a4.89,4.89,0,0,0-.41,1.63c0,.2-.2.2-.4.2a2.26,2.26,0,0,0-1.62,0,1.53,1.53,0,0,0-1.22,1.62,10,10,0,0,0,0,2.44v3.45c0,.2,0,.4-.41.4H100c-.2,0-.2,0-.2-.2V46.4c0-.2,0-.4.41-.4h1.42c.4,0,.4.2.4.4C101.63,46.4,101.63,46.61,101.63,46.81Z"/><path d="M72.61,46.81l.61-.61c1-.81,2-.61,3-.61.21,0,.21,0,.21.2s0,.41-.21.41c-.2.41-.2,1-.4,1.22s-.81,0-1.22,0c-1.22,0-2,.81-2,2.43v5.07c0,.41-.2.41-.4.41-.61,0-1.22.2-1.63-.2-.2-.21,0-1,0-1.63V46c0-.41.2-.41.41-.41h1.22c.2,0,.4,0,.4.41Z"/><path d="M120.72,54.74h0c.23,0,.23.23,0,0C121,55,121,54.74,120.72,54.74Z"/><path class="cls-1" d="M36.47,0h4.89c0,.13.17.09.26.09a29.16,29.16,0,0,1,4.16.5A39,39,0,0,1,63,8.32c-.6.51-1.23,1-1.8,1.54a51.57,51.57,0,0,0-4.47,4.76A39,39,0,0,0,50.37,26a37.67,37.67,0,0,0-2,8.85,41.44,41.44,0,0,0,.11,9.18,38.58,38.58,0,0,0,7.4,18.25A37.45,37.45,0,0,0,59,66,29.62,29.62,0,0,0,63,69.52s0,0,0,0a39.08,39.08,0,0,1-31.37,7.67,38.34,38.34,0,0,1-12.59-4.77A39.07,39.07,0,0,1,6.76,61a37.72,37.72,0,0,1-4-7.41A39.39,39.39,0,0,1,.29,44,11.63,11.63,0,0,0,0,41.87V36.06c.08,0,.09-.09.1-.17a35.36,35.36,0,0,1,1.5-8.16A39.19,39.19,0,0,1,22.43,3.64,38.29,38.29,0,0,1,35,.19,5.07,5.07,0,0,0,36.47,0Z"/><path class="cls-2" d="M63,69.57s0,0,0,0a1.25,1.25,0,0,0,.79-.45l1-.93a34.62,34.62,0,0,0,4.46-4.6,37.18,37.18,0,0,0,3.34-4.84,41.37,41.37,0,0,0,2.62-5.35,37,37,0,0,0,2-7.13,38.25,38.25,0,0,0,.65-6.31c0-1.12,0-2.24-.06-3.37-.1-1.34-.25-2.67-.45-4a36.81,36.81,0,0,0-1.94-7.27,40.36,40.36,0,0,0-2.61-5.57,37.34,37.34,0,0,0-2.23-3.48,38.62,38.62,0,0,0-2.73-3.37c-.92-1-1.89-2-2.89-2.9A24,24,0,0,1,63.17,8.3a3.44,3.44,0,0,1,.35-.3,39.74,39.74,0,0,1,7.89-4.68A39.33,39.33,0,0,1,83.7.13a2.09,2.09,0,0,0,1-.13h4.88c.05.1.14.09.22.09a36.92,36.92,0,0,1,7.88,1.35A39,39,0,0,1,126,35.49a6.18,6.18,0,0,0,.18,1.71v3.32a6.38,6.38,0,0,0-.14,1.57,39.52,39.52,0,0,1-3.16,12.5,39.11,39.11,0,0,1-21.2,20.55,38.91,38.91,0,0,1-35.46-3.36C65.1,71.08,64.07,70.31,63,69.57Z"/><path class="cls-3" d="M117.68,96.48a3.43,3.43,0,0,1-2.34,1.3c-.08,0-.18,0-.21.1h-1.35c-.46-.16-.94-.29-1.38-.49A5.4,5.4,0,0,1,109.51,91a5.08,5.08,0,0,1,6.24-3.84,3.91,3.91,0,0,1,2,1.33c0-1.69,0-3.29,0-4.89,0-.42.12-.53.52-.5a7.94,7.94,0,0,0,1.29,0c.4,0,.48.09.48.48,0,3.84,0,7.69,0,11.53,0,.73,0,1.46,0,2.18,0,.26-.07.33-.32.32q-.78,0-1.56,0c-.31,0-.44-.07-.41-.4a3.75,3.75,0,0,0,0-.67s.06-.06,0-.07S117.72,96.44,117.68,96.48Zm-6-4.08a3.14,3.14,0,1,0,6.27,0,3.14,3.14,0,1,0-6.27,0Z"/><path class="cls-3" d="M29.41,97.88c-.46-.17-.93-.32-1.38-.51a5.23,5.23,0,0,1-3-5.29,5.08,5.08,0,0,1,3.11-4.64,4.52,4.52,0,0,1,5.33,1c0-.34,0-.63,0-.91s.09-.35.36-.34h1.55c.25,0,.38,0,.38.33q0,4.86,0,9.71c0,.28-.1.36-.36.35-.5,0-1,0-1.51,0s-.46-.1-.42-.43,0-.48,0-.81A3.63,3.63,0,0,1,32,97.52c-.39.14-.8.24-1.2.36Zm-2.16-5.44a3.15,3.15,0,1,0,6.29-.09,3.15,3.15,0,1,0-6.29.09Z"/><path class="cls-3" d="M62.87,97.88c-.32-.26-.74-.22-1.1-.35A5.22,5.22,0,0,1,58.45,92,5,5,0,0,1,62,87.26a4.74,4.74,0,0,1,6.42,4.47c0,.44,0,.87,0,1.3s-.11.38-.41.38c-2.27,0-4.54,0-6.81,0-.48,0-.47.14-.34.52a3.06,3.06,0,0,0,3.48,2A5.15,5.15,0,0,0,66.58,95c.25-.18.37-.17.52.1a3.83,3.83,0,0,0,.57.85c.37.4.2.6-.18.83a6.77,6.77,0,0,1-2.81,1c-.09,0-.21,0-.25.1Zm.8-8.91A2.73,2.73,0,0,0,60.91,91c-.07.27-.08.43.3.42,1.57,0,3.13,0,4.7,0,.25,0,.32,0,.28-.32A2.51,2.51,0,0,0,63.67,89Z"/><path class="cls-3" d="M53.41,97.88c-.09-.18-.27-.13-.41-.16A2.88,2.88,0,0,1,50.71,95c-.15-1.72-.06-3.43-.06-5.14,0-.49-.14-.61-.6-.59s-1.11.22-1.39-.1,0-.89-.09-1.35.1-.66.59-.6.73,0,1.09,0,.4-.12.4-.42c0-.8,0-1.59,0-2.39,0-.27.06-.37.34-.36.54,0,1.08,0,1.61,0,.3,0,.34.12.34.37,0,.8,0,1.59,0,2.39,0,.32.06.42.39.41,1,0,1.94,0,2.91,0,.3,0,.44.07.41.41a7.88,7.88,0,0,0,0,1.19c0,.36-.08.48-.45.47-1,0-1.91,0-2.86,0-.31,0-.41.07-.4.4,0,1.4,0,2.81,0,4.21s.65,2,2,1.76a3.76,3.76,0,0,0,1.44-.5c.19.57.35,1.11.56,1.63.11.27,0,.36-.2.47a14,14,0,0,1-2,.64Z"/><path class="cls-3" d="M82.82,97.88a5.16,5.16,0,0,0-1.16-.34A5.45,5.45,0,0,1,84,87a5.66,5.66,0,0,1,3.11,1c.24.16.29.28.12.53s-.49.79-.7,1.2-.25.31-.52.13a3.78,3.78,0,0,0-3.09-.66,3.3,3.3,0,0,0-2.39,4,3,3,0,0,0,3.66,2.58,3.88,3.88,0,0,0,1.8-.71c.31-.23.41-.12.55.16a8.66,8.66,0,0,0,.66,1.1c.23.32.12.47-.16.65a5.37,5.37,0,0,1-2.25.85c-.09,0-.22,0-.26.1Z"/><path class="cls-4" d="M41.25,97.88l.16-.08a6.59,6.59,0,0,0,1.66,0l.16.08Z"/><path class="cls-4" d="M92.9,97.88l.13-.07a3.81,3.81,0,0,0,1.26,0l.17.08Z"/><path class="cls-4" d="M63,8.32l.2,0A24,24,0,0,0,65,10c1,.93,2,1.88,2.89,2.9a38.62,38.62,0,0,1,2.73,3.37,37.34,37.34,0,0,1,2.23,3.48,40.36,40.36,0,0,1,2.61,5.57,36.81,36.81,0,0,1,1.94,7.27c.2,1.33.35,2.66.45,4,.07,1.13.08,2.25.06,3.37a38.25,38.25,0,0,1-.65,6.31,37,37,0,0,1-2,7.13,41.37,41.37,0,0,1-2.62,5.35,37.18,37.18,0,0,1-3.34,4.84,34.62,34.62,0,0,1-4.46,4.6l-1,.93a1.25,1.25,0,0,1-.79.45A29.62,29.62,0,0,1,59,66a37.45,37.45,0,0,1-3.12-3.66,38.58,38.58,0,0,1-7.4-18.25,41.44,41.44,0,0,1-.11-9.18,37.67,37.67,0,0,1,2-8.85,39,39,0,0,1,6.33-11.4,51.57,51.57,0,0,1,4.47-4.76C61.74,9.31,62.37,8.83,63,8.32Z"/><path class="cls-3" d="M8.63,88.46a4.08,4.08,0,0,1,6.5.36,4.05,4.05,0,0,1,2.58-1.69,4.27,4.27,0,0,1,4.38,1.3A3.9,3.9,0,0,1,22.92,91c0,2.1,0,4.19,0,6.29,0,.27-.06.36-.35.34-.58,0-1.17,0-1.76,0-.33,0-.4-.1-.39-.41q0-2.52,0-5a5.45,5.45,0,0,0-.12-1.28,2,2,0,0,0-2.13-1.72,2.3,2.3,0,0,0-2.39,1.68A4.32,4.32,0,0,0,15.67,92c0,1.74,0,3.47,0,5.2,0,.29-.06.4-.36.38a12.68,12.68,0,0,0-1.51,0c-.35,0-.42-.11-.42-.44,0-1.7,0-3.4,0-5.09a5,5,0,0,0-.16-1.39A2,2,0,0,0,11,89.18a2.21,2.21,0,0,0-2.26,1.74,4,4,0,0,0-.11,1c0,1.77,0,3.53,0,5.3,0,.35-.1.44-.43.42-.5,0-1,0-1.51,0-.24,0-.37,0-.37-.33q0-4.86,0-9.72c0-.29.1-.35.35-.34.51,0,1,0,1.51,0,.32,0,.48.06.44.42A7.13,7.13,0,0,0,8.63,88.46Z"/><path class="cls-3" d="M94.29,97.8a3.81,3.81,0,0,1-1.26,0,5.45,5.45,0,0,1-.48-10.68,4.17,4.17,0,0,1,4.29,1.32c0-.1,0-.15,0-.19,0-1,0-1,1.11-1s1.18,0,1.18,1.18c0,2.91,0,5.82,0,8.73,0,.38-.09.52-.49.49a10.89,10.89,0,0,0-1.4,0c-.3,0-.45,0-.41-.38a6.24,6.24,0,0,0,0-.88A3.58,3.58,0,0,1,94.29,97.8Zm2.8-5.38a3.15,3.15,0,0,0-4.51-3,3.35,3.35,0,0,0-1.75,3.37,3.18,3.18,0,0,0,3.9,3A3.26,3.26,0,0,0,97.09,92.42Z"/><path class="cls-3" d="M43.07,97.8a6.59,6.59,0,0,1-1.66,0A7.49,7.49,0,0,1,38,96.74c-.21-.13-.31-.22-.13-.47a11.19,11.19,0,0,0,.75-1.18c.13-.25.23-.25.46-.11a5.79,5.79,0,0,0,4.12.82,2.09,2.09,0,0,0,1.11-.5.78.78,0,0,0-.18-1.38,5.5,5.5,0,0,0-2.15-.5,6.5,6.5,0,0,1-2-.48,2.62,2.62,0,0,1-1.82-2.36,3,3,0,0,1,1.44-2.84A4.71,4.71,0,0,1,42,87a8.11,8.11,0,0,1,4.41.84c.24.13.39.22.19.53s-.4,1.1-.79,1.36-.94-.29-1.43-.4a7.92,7.92,0,0,0-2-.3,3.1,3.1,0,0,0-1.16.25,1,1,0,0,0-.64,1c0,.48.39.66.79.77.82.23,1.68.2,2.51.37a5.11,5.11,0,0,1,1.73.65,2.86,2.86,0,0,1,.14,4.77A5.24,5.24,0,0,1,43.07,97.8Z"/><path class="cls-3" d="M104.46,88.35c1-1.39,2.46-1.44,4-1.29.2,0,.28.06.2.29-.18.55-.35,1.12-.49,1.68-.08.28-.22.23-.43.19a3.4,3.4,0,0,0-1.79,0,2,2,0,0,0-1.37,1.73,14.36,14.36,0,0,0-.08,2.54c0,1.24,0,2.49,0,3.74,0,.31,0,.47-.42.45s-1,0-1.55,0c-.25,0-.32-.07-.32-.33q0-4.85,0-9.71c0-.27.07-.36.34-.35.5,0,1,0,1.51,0s.48.13.44.47S104.46,88.13,104.46,88.35Z"/><path class="cls-3" d="M73.17,88.3l.71-.6a4.13,4.13,0,0,1,3.31-.62c.15,0,.2.08.14.24s-.09.33-.14.5c-.13.44-.15,1-.44,1.3s-.85,0-1.3-.05C74,89,73.19,90,73.17,91.6c0,1.84,0,3.68,0,5.52,0,.43-.13.54-.52.5-.58-.05-1.37.24-1.7-.11s-.07-1.09-.07-1.66c0-2.72,0-5.43,0-8.15,0-.42.13-.5.49-.48a10.9,10.9,0,0,0,1.4,0c.32,0,.45.07.42.4A5.3,5.3,0,0,0,73.17,88.3Z"/><path class="cls-5" d="M117.68,96.48s.09-.06.12,0,0,0,0,.07Z"/></svg>