<svg id="Calque_1" data-name="Calque 1" xmlns="http://www.w3.org/2000/svg" viewBox="0 0 150 37.13"><defs><style>.cls-1{fill:#342d6f;}.cls-2{fill:#4a98d2;}.cls-3{fill:#fefefe;}.cls-4{fill:#332c6e;}.cls-5{fill:#4997d1;}.cls-6{fill:#2e1d58;}</style></defs><path class="cls-1" d="M54.91,9.11a31.87,31.87,0,0,1,5,.18c3.78.68,5.43,3,4.83,6.82a14.53,14.53,0,0,1-.3,1.46,7.79,7.79,0,0,1-7.62,6.27c-1.11.06-2.23,0-3.34,0s-1.36.28-1.52,1.28c-.26,1.66-.52,3.32-.8,5-.14.86-.47,1.12-1.34,1.12H46.47c-.76,0-1-.26-.87-1q1.5-9.57,3-19.15c.32-2,.35-2,2.4-2ZM54.4,19.42c.36,0,.71,0,1.07,0,2.29-.16,3.4-1.38,3.35-3.69a1.87,1.87,0,0,0-1.56-2,12.08,12.08,0,0,0-2.75-.17c-.52,0-.77.22-.85.74-.17,1.21-.38,2.42-.56,3.63C52.87,19.47,52.87,19.47,54.4,19.42Z"/><path class="cls-2" d="M111.3,9.1a35.5,35.5,0,0,1,5.72.23c3.39.63,5.07,3,4.58,6.43a10.17,10.17,0,0,1-2.07,5.36,8,8,0,0,1-5.9,2.71c-1.13.08-2.27,0-3.41.05-.91,0-1.25.27-1.4,1.16-.29,1.68-.55,3.37-.8,5.05-.15,1-.3,1.17-1.3,1.17H103.3c-.75,0-1-.26-.85-1l3-18.87c.06-.37.11-.75.18-1.12a1.18,1.18,0,0,1,1.34-1.16Zm0,10.32c.35,0,.71,0,1.06,0a3.21,3.21,0,0,0,3.37-3.5,2,2,0,0,0-1.69-2.2,10.16,10.16,0,0,0-2.4-.14c-.9,0-1,.1-1.15,1-.17,1.12-.35,2.24-.53,3.36C109.66,19.47,109.65,19.47,111.26,19.42Z"/><path class="cls-1" d="M77,17.93c.49-1.45.49-1.45,2.15-1.45h2.2c.85,0,1.07.24.94,1.08-.54,3.51-1.1,7-1.65,10.52-.11.73-.22,1.46-.35,2.18a1.07,1.07,0,0,1-1.16,1h-3c-.95,0-1.12-.19-1-1.14,0-.13,0-.28,0-.53A8.27,8.27,0,0,1,72,31.37c-5.12,1.38-9.11-2.25-8.23-7.5s5.3-8.52,10.45-7.56A4.34,4.34,0,0,1,77,17.93Zm-4.91,9.63a4.29,4.29,0,0,0,4.33-4.11,3,3,0,0,0-2.23-3.14A4.3,4.3,0,0,0,68.88,24,2.93,2.93,0,0,0,72.08,27.56Z"/><path class="cls-2" d="M131.93,29.69a8.66,8.66,0,0,1-4.35,1.91,6.11,6.11,0,0,1-7.12-6.71,8.94,8.94,0,0,1,5.31-8,8.45,8.45,0,0,1,6-.33,3.36,3.36,0,0,1,2,1.43c.06-.05.12-.06.13-.09.22-1.37.22-1.37,1.61-1.37.92,0,1.85,0,2.77,0,.74,0,1,.32.87,1q-1,6.24-2,12.48c-.16,1-.49,1.26-1.46,1.26H133c-1,0-1.13-.13-1-1.17a1.84,1.84,0,0,0,0-.41l.09,0h0A.21.21,0,0,0,131.93,29.69Zm-3-2.13a4.26,4.26,0,0,0,4.3-4.62,2.85,2.85,0,0,0-2.29-2.64,4.27,4.27,0,0,0-5.14,3.31C125.27,26,126.56,27.57,128.92,27.56Z"/><path class="cls-1" d="M92,24.66l3.32-4.88c.6-.88,1.2-1.76,1.79-2.65a1.32,1.32,0,0,1,1.18-.65h3.49a.77.77,0,0,1,.78.37.8.8,0,0,1-.14.87L89.89,35.82a1.39,1.39,0,0,1-1.25.67q-1.64,0-3.27,0a.89.89,0,0,1-.91-.41c-.19-.38,0-.68.23-1C85.78,33.58,86.83,32,88,30.53a1.52,1.52,0,0,0,.25-1.61c-1.3-3.7-2.55-7.43-3.81-11.15-.34-1-.12-1.29.94-1.29h3c.93,0,1.23.23,1.49,1.1.63,2.08,1.24,4.17,1.87,6.26A1.92,1.92,0,0,0,92,24.66Z"/><path class="cls-2" d="M142.09,31.26h-1.42c-.82,0-1-.25-.89-1.12.24-1.59.5-3.18.75-4.77.78-5,1.58-10,2.36-15,.18-1.2.24-1.27,1.48-1.27.9,0,1.8,0,2.7,0s1,.32.91,1.08l-2.46,15.49c-.22,1.38-.44,2.76-.65,4.14-.17,1.21-.44,1.45-1.64,1.45Z"/><path class="cls-3" d="M131.93,29.69a.21.21,0,0,1,0-.06h0l-.09,0Z"/><path class="cls-4" d="M10,33H3.2c-.93,0-1.32-.47-1.18-1.4Q3.42,22.79,4.79,14l2-12.46A1.67,1.67,0,0,1,8.44.1c4,0,8,0,11.92,0a14.74,14.74,0,0,1,5.82,1.08,6.76,6.76,0,0,1,4.15,7l-.12,1.34-.06,0a.81.81,0,0,0-.33-.21,11.09,11.09,0,0,0-4.6-1c-3.36-.06-6.72,0-10.08,0a1.39,1.39,0,0,0-1.38,1.18l-.45,2.76c-.17,1-.34,2-.5,3.07-.26,1.64-.53,3.29-.76,4.94A2.44,2.44,0,0,0,12,21.46a8.78,8.78,0,0,0-.37,1.82c-.36,2.29-.72,4.59-1.09,6.88C10.35,31.09,10.18,32,10,33Z"/><path class="cls-5" d="M30.15,9.55l.06,0a5.34,5.34,0,0,1,3,4.53,12.76,12.76,0,0,1-2.31,8.71,9.41,9.41,0,0,1-6,3.68,18.77,18.77,0,0,1-4.1.34c-1.13,0-1.61.4-1.79,1.52-.4,2.48-.79,5-1.19,7.44A1.41,1.41,0,0,1,16.28,37H10.56c-.77,0-1.1-.42-1-1.18.16-1,.3-1.93.45-2.9s.32-1.87.47-2.8c.37-2.29.73-4.59,1.09-6.88A8.78,8.78,0,0,1,12,21.46a1.83,1.83,0,0,1,1.69-.82,44.59,44.59,0,0,0,5.66-.15A13.28,13.28,0,0,0,24,19.12C27.85,17.1,29.51,13.65,30.15,9.55Z"/><path class="cls-6" d="M30.15,9.55c-.64,4.1-2.3,7.55-6.15,9.57a13.28,13.28,0,0,1-4.69,1.37,44.59,44.59,0,0,1-5.66.15,1.83,1.83,0,0,0-1.69.82,2.44,2.44,0,0,1,.09-1.17c.23-1.65.5-3.3.76-4.94.16-1,.33-2,.5-3.07l.45-2.76a1.39,1.39,0,0,1,1.38-1.18c3.36,0,6.72,0,10.08,0a11.09,11.09,0,0,1,4.6,1A.81.81,0,0,1,30.15,9.55Z"/></svg>