<svg id="Calque_1" data-name="Calque 1" xmlns="http://www.w3.org/2000/svg" xmlns:xlink="http://www.w3.org/1999/xlink" viewBox="0 0 150 48.57"><defs><style>.cls-1{fill:url(#Dégradé_sans_nom_34);}.cls-2{fill:url(#Dégradé_sans_nom_34-2);}.cls-3{fill:url(#Dégradé_sans_nom_34-3);}.cls-4{fill:url(#Dégradé_sans_nom_34-4);}</style><linearGradient id="Dégradé_sans_nom_34" x1="106.65" y1="24.53" x2="150" y2="24.53" gradientUnits="userSpaceOnUse"><stop offset="0" stop-color="#1a1b53"/><stop offset="1" stop-color="#112b9c"/></linearGradient><linearGradient id="Dégradé_sans_nom_34-2" x1="0" y1="24.44" x2="56.83" y2="24.44" xlink:href="#Dégradé_sans_nom_34"/><linearGradient id="Dégradé_sans_nom_34-3" x1="72.84" y1="24.29" x2="109.53" y2="24.29" xlink:href="#Dégradé_sans_nom_34"/><linearGradient id="Dégradé_sans_nom_34-4" x1="52.16" y1="24.35" x2="74.28" y2="24.35" xlink:href="#Dégradé_sans_nom_34"/></defs><path class="cls-1" d="M150,47.73c-.36,0-.54.18-.9.18h-9.35c-.72,0-.9-.18-1.08-.9l-1.08-5.4c-.18-.54-.36-.72-.9-.72H122.48c-.54,0-.72.18-.9.72-.72,1.8-1.26,3.78-2,5.58-.18.36-.54.72-.72.72H106.65a20.19,20.19,0,0,0,.9-2.34c5.76-13.67,11.51-27.34,17.09-40.83A5.47,5.47,0,0,1,130,1.15h9.35c.72,0,.9.18,1.08.9,2.16,10.07,4.13,20.14,6.29,30.21,1.08,5,2.16,9.89,3.06,14.93C150,47.19,150,47.37,150,47.73ZM132,13.92h-.18c-2.15,5.75-4.13,11.51-6.29,17.26h10.07C134.35,25.43,133.09,19.67,132,13.92Z"/><path class="cls-2" d="M0,2.23C0,1.87.18,1.51.18,1h20.5a5.38,5.38,0,0,1,5.76,4.85c1.62,8.64,3.24,17.27,4.85,25.72,0,.36.18.72.18,1.08.18-.36.36-.54.36-.72,4.14-9.89,8.1-20,12.05-30,.36-.72.54-.9,1.26-.9H56.83c-.18.54-.36.9-.54,1.44C50,17.33,43.71,32.26,37.59,47.19c-.18.54-.54.72-1.26.72H25.18c-.72,0-.9-.18-1.08-.9C21.22,34.78,18,22.55,14.93,10.5A6.15,6.15,0,0,0,11.33,6,45.19,45.19,0,0,0,1.08,2.59C.72,2.41.36,2.41,0,2.23Z"/><path class="cls-3" d="M109.53,2.23c-.72,3.23-1.44,6.47-2,9.53-2.15-.54-4.31-1.26-6.47-1.62a14,14,0,0,0-7.2.18,11.64,11.64,0,0,0-2.51,1.44,2.73,2.73,0,0,0,0,4.13,30.55,30.55,0,0,0,3.95,2.7c2,1.26,4.14,2.34,6.12,3.6,9.17,5.76,6.47,16.91.9,21.4a22.87,22.87,0,0,1-11.15,4.68,38.19,38.19,0,0,1-17.45-1.8c-.36-.18-.54-.18-.9-.36L75,35.86a17.54,17.54,0,0,0,2,.9,22.86,22.86,0,0,0,13,1.8A9.17,9.17,0,0,0,93,37.3a3.63,3.63,0,0,0,.36-5.94,32.74,32.74,0,0,0-4.14-2.7,61.82,61.82,0,0,1-6.84-4.31C75.54,19,77.52,10.5,81.65,6.18A20.76,20.76,0,0,1,93.17.43a32.31,32.31,0,0,1,16,1.44C109.17,2.05,109.35,2.05,109.53,2.23Z"/><path class="cls-4" d="M62.23,1H74.28c-3.42,15.64-6.65,31.29-10.07,46.76h-12C55.58,32.26,58.81,16.61,62.23,1Z"/></svg>